<?xml version="1.0" encoding="UTF-8"?> <svg xmlns="http://www.w3.org/2000/svg" xmlns:xlink="http://www.w3.org/1999/xlink" height="1748" viewBox="0 0 1748 1748" width="1748"> <filter id="a" height="146.4%" width="146.4%" x="-23.2%" y="-12.5%"> <feMorphology in="SourceAlpha" operator="dilate" radius="0.5" result="shadowSpreadOuter1"></feMorphology> <feOffset dx="0" dy="3" in="shadowSpreadOuter1" result="shadowOffsetOuter1"></feOffset> <feGaussianBlur in="shadowOffsetOuter1" result="shadowBlurOuter1" stdDeviation="1.5"></feGaussianBlur> <feComposite in="shadowBlurOuter1" in2="SourceAlpha" operator="out" result="shadowBlurOuter1"></feComposite> <feColorMatrix in="shadowBlurOuter1" result="shadowMatrixOuter1" type="matrix" values="0 0 0 0 0 0 0 0 0 0 0 0 0 0 0 0 0 0 0.05 0"></feColorMatrix> <feMorphology in="SourceAlpha" operator="dilate" radius="0.5" result="shadowSpreadOuter2"></feMorphology> <feOffset dx="0" dy="2" in="shadowSpreadOuter2" result="shadowOffsetOuter2"></feOffset> <feGaussianBlur in="shadowOffsetOuter2" result="shadowBlurOuter2" stdDeviation="1"></feGaussianBlur> <feComposite in="shadowBlurOuter2" in2="SourceAlpha" operator="out" result="shadowBlurOuter2"></feComposite> <feColorMatrix in="shadowBlurOuter2" result="shadowMatrixOuter2" type="matrix" values="0 0 0 0 0 0 0 0 0 0 0 0 0 0 0 0 0 0 0.1 0"></feColorMatrix> <feMorphology in="SourceAlpha" operator="dilate" radius="0.5" result="shadowSpreadOuter3"></feMorphology> <feOffset dx="0" dy="3" in="shadowSpreadOuter3" result="shadowOffsetOuter3"></feOffset> <feGaussianBlur in="shadowOffsetOuter3" result="shadowBlurOuter3" stdDeviation=".5"></feGaussianBlur> <feComposite in="shadowBlurOuter3" in2="SourceAlpha" operator="out" result="shadowBlurOuter3"></feComposite> <feColorMatrix in="shadowBlurOuter3" result="shadowMatrixOuter3" type="matrix" values="0 0 0 0 0 0 0 0 0 0 0 0 0 0 0 0 0 0 0.0510643116 0"></feColorMatrix> <feMerge> <feMergeNode in="shadowMatrixOuter1"></feMergeNode> <feMergeNode in="shadowMatrixOuter2"></feMergeNode> <feMergeNode in="shadowMatrixOuter3"></feMergeNode> </feMerge> </filter> <filter id="b" height="146.4%" width="146.4%" x="-23.2%" y="-12.5%"> <feMorphology in="SourceAlpha" operator="dilate" radius="0.5" result="shadowSpreadOuter1"></feMorphology> <feOffset dx="0" dy="3" in="shadowSpreadOuter1" result="shadowOffsetOuter1"></feOffset> <feGaussianBlur in="shadowOffsetOuter1" result="shadowBlurOuter1" stdDeviation="1.5"></feGaussianBlur> <feComposite in="shadowBlurOuter1" in2="SourceAlpha" operator="out" result="shadowBlurOuter1"></feComposite> <feColorMatrix in="shadowBlurOuter1" result="shadowMatrixOuter1" type="matrix" values="0 0 0 0 0 0 0 0 0 0 0 0 0 0 0 0 0 0 0.05 0"></feColorMatrix> <feMorphology in="SourceAlpha" operator="dilate" radius="0.5" result="shadowSpreadOuter2"></feMorphology> <feOffset dx="0" dy="2" in="shadowSpreadOuter2" result="shadowOffsetOuter2"></feOffset> <feGaussianBlur in="shadowOffsetOuter2" result="shadowBlurOuter2" stdDeviation="1"></feGaussianBlur> <feComposite in="shadowBlurOuter2" in2="SourceAlpha" operator="out" result="shadowBlurOuter2"></feComposite> <feColorMatrix in="shadowBlurOuter2" result="shadowMatrixOuter2" type="matrix" values="0 0 0 0 0 0 0 0 0 0 0 0 0 0 0 0 0 0 0.1 0"></feColorMatrix> <feMorphology in="SourceAlpha" operator="dilate" radius="0.5" result="shadowSpreadOuter3"></feMorphology> <feOffset dx="0" dy="3" in="shadowSpreadOuter3" result="shadowOffsetOuter3"></feOffset> <feGaussianBlur in="shadowOffsetOuter3" result="shadowBlurOuter3" stdDeviation=".5"></feGaussianBlur> <feComposite in="shadowBlurOuter3" in2="SourceAlpha" operator="out" result="shadowBlurOuter3"></feComposite> <feColorMatrix in="shadowBlurOuter3" result="shadowMatrixOuter3" type="matrix" values="0 0 0 0 0 0 0 0 0 0 0 0 0 0 0 0 0 0 0.0510643116 0"></feColorMatrix> <feMerge> <feMergeNode in="shadowMatrixOuter1"></feMergeNode> <feMergeNode in="shadowMatrixOuter2"></feMergeNode> <feMergeNode in="shadowMatrixOuter3"></feMergeNode> </feMerge> </filter> <filter id="c" height="146.4%" width="146.4%" x="-23.2%" y="-12.5%"> <feMorphology in="SourceAlpha" operator="dilate" radius="0.5" result="shadowSpreadOuter1"></feMorphology> <feOffset dx="0" dy="3" in="shadowSpreadOuter1" result="shadowOffsetOuter1"></feOffset> <feGaussianBlur in="shadowOffsetOuter1" result="shadowBlurOuter1" stdDeviation="1.5"></feGaussianBlur> <feComposite in="shadowBlurOuter1" in2="SourceAlpha" operator="out" result="shadowBlurOuter1"></feComposite> <feColorMatrix in="shadowBlurOuter1" result="shadowMatrixOuter1" type="matrix" values="0 0 0 0 0 0 0 0 0 0 0 0 0 0 0 0 0 0 0.05 0"></feColorMatrix> <feMorphology in="SourceAlpha" operator="dilate" radius="0.5" result="shadowSpreadOuter2"></feMorphology> <feOffset dx="0" dy="2" in="shadowSpreadOuter2" result="shadowOffsetOuter2"></feOffset> <feGaussianBlur in="shadowOffsetOuter2" result="shadowBlurOuter2" stdDeviation="1"></feGaussianBlur> <feComposite in="shadowBlurOuter2" in2="SourceAlpha" operator="out" result="shadowBlurOuter2"></feComposite> <feColorMatrix in="shadowBlurOuter2" result="shadowMatrixOuter2" type="matrix" values="0 0 0 0 0 0 0 0 0 0 0 0 0 0 0 0 0 0 0.1 0"></feColorMatrix> <feMorphology in="SourceAlpha" operator="dilate" radius="0.5" result="shadowSpreadOuter3"></feMorphology> <feOffset dx="0" dy="3" in="shadowSpreadOuter3" result="shadowOffsetOuter3"></feOffset> <feGaussianBlur in="shadowOffsetOuter3" result="shadowBlurOuter3" stdDeviation=".5"></feGaussianBlur> <feComposite in="shadowBlurOuter3" in2="SourceAlpha" operator="out" result="shadowBlurOuter3"></feComposite> <feColorMatrix in="shadowBlurOuter3" result="shadowMatrixOuter3" type="matrix" values="0 0 0 0 0 0 0 0 0 0 0 0 0 0 0 0 0 0 0.0510643116 0"></feColorMatrix> <feMerge> <feMergeNode in="shadowMatrixOuter1"></feMergeNode> <feMergeNode in="shadowMatrixOuter2"></feMergeNode> <feMergeNode in="shadowMatrixOuter3"></feMergeNode> </feMerge> </filter> <filter id="d" height="146.4%" width="146.4%" x="-23.2%" y="-12.5%"> <feMorphology in="SourceAlpha" operator="dilate" radius="0.5" result="shadowSpreadOuter1"></feMorphology> <feOffset dx="0" dy="3" in="shadowSpreadOuter1" result="shadowOffsetOuter1"></feOffset> <feGaussianBlur in="shadowOffsetOuter1" result="shadowBlurOuter1" stdDeviation="1.5"></feGaussianBlur> <feComposite in="shadowBlurOuter1" in2="SourceAlpha" operator="out" result="shadowBlurOuter1"></feComposite> <feColorMatrix in="shadowBlurOuter1" result="shadowMatrixOuter1" type="matrix" values="0 0 0 0 0 0 0 0 0 0 0 0 0 0 0 0 0 0 0.05 0"></feColorMatrix> <feMorphology in="SourceAlpha" operator="dilate" radius="0.5" result="shadowSpreadOuter2"></feMorphology> <feOffset dx="0" dy="2" in="shadowSpreadOuter2" result="shadowOffsetOuter2"></feOffset> <feGaussianBlur in="shadowOffsetOuter2" result="shadowBlurOuter2" stdDeviation="1"></feGaussianBlur> <feComposite in="shadowBlurOuter2" in2="SourceAlpha" operator="out" result="shadowBlurOuter2"></feComposite> <feColorMatrix in="shadowBlurOuter2" result="shadowMatrixOuter2" type="matrix" values="0 0 0 0 0 0 0 0 0 0 0 0 0 0 0 0 0 0 0.1 0"></feColorMatrix> <feMorphology in="SourceAlpha" operator="dilate" radius="0.5" result="shadowSpreadOuter3"></feMorphology> <feOffset dx="0" dy="3" in="shadowSpreadOuter3" result="shadowOffsetOuter3"></feOffset> <feGaussianBlur in="shadowOffsetOuter3" result="shadowBlurOuter3" stdDeviation=".5"></feGaussianBlur> <feComposite in="shadowBlurOuter3" in2="SourceAlpha" operator="out" result="shadowBlurOuter3"></feComposite> <feColorMatrix in="shadowBlurOuter3" result="shadowMatrixOuter3" type="matrix" values="0 0 0 0 0 0 0 0 0 0 0 0 0 0 0 0 0 0 0.0510643116 0"></feColorMatrix> <feMerge> <feMergeNode in="shadowMatrixOuter1"></feMergeNode> <feMergeNode in="shadowMatrixOuter2"></feMergeNode> <feMergeNode in="shadowMatrixOuter3"></feMergeNode> </feMerge> </filter> <g fill="none" fill-rule="evenodd"> <g transform="translate(74 424)"> <path d="m0 0h1600v900h-1600z" fill="#ecebed"></path> <path d="m0 40h1600v1h-1600z" fill="#c0c0c0"></path> <circle cx="60" cy="20" fill="#28ca42" r="6" stroke="#1dac2c"></circle> <circle cx="40" cy="20" fill="#ffbd2e" r="6" stroke="#dfa123"></circle> <circle cx="20" cy="20" fill="#ff5f57" r="6" stroke="#e14640"></circle> <rect fill="#fff" height="25" rx="3" width="650" x="475" y="8"></rect> <path d="m0 41h1600v859h-1600z" fill="#fff"></path> <path d="m0 41h60v859h-54-6v-3.989098z" fill="#f5f5f5"></path> </g> <g fill="#e7e7e7"> <path d="m1069 494h416v24h-416z"></path> <path d="m1069 534h589v24h-589z"></path> <path d="m1069 574h589v24h-589z"></path> <path d="m1069 614h486v24h-486z"></path> <path d="m1069 654h416v24h-416z"></path> <path d="m1069 694h589v24h-589z"></path> <path d="m1069 734h589v24h-589z"></path> <path d="m1069 774h589v24h-589z"></path> <path d="m1069 814h589v24h-589z"></path> <path d="m1069 854h486v24h-486z"></path> <path d="m1069 894h486v24h-486z"></path> <path d="m1069 934h416v24h-416z"></path> <path d="m1069 974h416v24h-416z"></path> <path d="m1069 1014h589v24h-589z"></path> <path d="m1069 1054h589v24h-589z"></path> <path d="m1069 1094h589v24h-589z"></path> <path d="m1069 1134h416v24h-416z"></path> <path d="m1069 1174h589v24h-589z"></path> <path d="m1069 1214h486v24h-486z"></path> <path d="m1069 1254h589v24h-589z"></path> <path d="m1069 1254h589v24h-589z"></path> </g> <path d="m153 1231h900v93h-900z" fill="#f5f5f5"></path> <g fill="#379bd4"> <rect height="36" rx="3" width="446" x="153" y="1133"></rect> <rect height="36" rx="3" width="446" x="153" y="1177"></rect> <rect height="36" rx="3" width="446" x="607" y="1177"></rect> <rect height="36" rx="3" width="446" x="607" y="1133"></rect> </g> <rect fill="#fff" height="281" rx="3" stroke="#c0c0c0" width="900" x="153" y="836"></rect> <path d="m217 589h391v24h-391z" fill="#e7e7e7"></path> <g> <rect fill="#4cd964" height="31" rx="15.5" width="51" x="158" y="585.5"></rect> <g transform="translate(158 585.5)"> <circle cx="35.5" cy="15.5" fill="#000" filter="url(#a)" r="14"></circle> <circle cx="35.5" cy="15.5" fill="#fff" fill-rule="evenodd" r="14.25" stroke="#000" stroke-opacity=".1" stroke-width=".5"></circle> </g> </g> <path d="m217 649h453v24h-453z" fill="#e7e7e7"></path> <g> <rect fill="#4cd964" height="31" rx="15.5" width="51" x="158" y="645.5"></rect> <g transform="translate(158 645.5)"> <circle cx="35.5" cy="15.5" fill="#000" filter="url(#b)" r="14"></circle> <circle cx="35.5" cy="15.5" fill="#fff" fill-rule="evenodd" r="14.25" stroke="#000" stroke-opacity=".1" stroke-width=".5"></circle> </g> </g> <path d="m220 709h354v24h-354z" fill="#e7e7e7"></path> <g> <rect fill="#4cd964" height="31" rx="15.5" width="51" x="161" y="705.5"></rect> <g transform="translate(161 705.5)"> <circle cx="35.5" cy="15.5" fill="#000" filter="url(#c)" r="14"></circle> <circle cx="35.5" cy="15.5" fill="#fff" fill-rule="evenodd" r="14.25" stroke="#000" stroke-opacity=".1" stroke-width=".5"></circle> </g> </g> <path d="m220 769h388v24h-388z" fill="#e7e7e7"></path> <g> <rect fill="#4cd964" height="31" rx="15.5" width="51" x="161" y="765.5"></rect> <g transform="translate(161 765.5)"> <circle cx="35.5" cy="15.5" fill="#000" filter="url(#d)" r="14"></circle> <circle cx="35.5" cy="15.5" fill="#fff" fill-rule="evenodd" r="14.25" stroke="#000" stroke-opacity=".1" stroke-width=".5"></circle> </g> </g> <g transform="translate(150 497)"> <rect fill="#379bd4" height="50" rx="4" width="126"></rect> <text fill="#fff" font-family="PTSans-Regular, PT Sans" font-size="28"> <tspan x="8.274" y="34">Telegram</tspan> </text> </g> <g transform="translate(292 497)"> <rect fill="#f0f0f0" height="50" rx="4" width="152"></rect> <text fill="#000" font-family="PTSans-Regular, PT Sans" font-size="28"> <tspan x="11.866" y="34">Messenger</tspan> </text> </g> <g transform="translate(460 497)"> <rect fill="#f0f0f0" height="50" rx="4" width="87"></rect> <text fill="#000" font-family="PTSans-Regular, PT Sans" font-size="28"> <tspan x="12.364" y="34">Viber</tspan> </text> </g> <g transform="translate(563 497)"> <rect fill="#f0f0f0" height="50" rx="4" width="53"></rect> <text fill="#000" font-family="PTSans-Regular, PT Sans" font-size="28"> <tspan x="10.008" y="34">VK</tspan> </text> </g> <g transform="matrix(-1 0 0 1 1748 679)"> <path d="m290 202.997745c0-106.0378968 86.18269-191.997745 192.5-191.997745s192.5 85.9598482 192.5 191.997745c0 106.037896-86.18269 192.002255-192.5 192.002255s-192.5-85.964359-192.5-192.002255" fill="#de4a59"></path> <path d="m328 204c0-85.052539 68.943951-154 153.997739-154 85.053787 0 154.002261 68.947461 154.002261 154s-68.948474 154-154.002261 154c-85.053788 0-153.997739-68.947461-153.997739-154" fill="#fffffe"></path> <path d="m367 203.5c0-63.789585 51.710415-115.5 115.5-115.5s115.5 51.710415 115.5 115.5-51.710415 115.5-115.5 115.5-115.5-51.710415-115.5-115.5" fill="#de4a59"></path> <path d="m403 203c0-43.077396 35.145447-78 78.497723-78 43.35683 0 78.502277 34.922604 78.502277 78s-35.145447 78-78.502277 78c-43.352276 0-78.497723-34.922604-78.497723-78" fill="#fffffe"></path> <path d="m434 204c0-25.953887 21.265482-47 47.5-47s47.5 21.046113 47.5 47-21.265482 47-47.5 47-47.5-21.046113-47.5-47" fill="#de4a59"></path> <path d="m461 203.5c0-11.319956 9.180044-20.5 20.5-20.5 11.324452 0 20.5 9.180044 20.5 20.5s-9.175548 20.5-20.5 20.5c-11.319956 0-20.5-9.180044-20.5-20.5" fill="#fffffe"></path> <path d="m134.884743 25.1547357s14.516195 28.4829729 10.370644 51.7017064c-4.150062 23.2187339-27.859545 31.8341769-28.161778 46.5867109s13.230577 28.645784 6.170962 42.728982c-7.055105 14.083197-81.3953424 39.902393-102.8628902 21.364491-21.45852595-18.53338-26.29876104-43.158624-13.05013993-62.239231 13.23959923-19.089652 14.43950843-30.2919897 9.09855933-44.6872426-5.3364381-14.3907304-4.5740898-43.6561032 16.2213284-62.6281692 22.3336477-20.36953167 63.6222513-29.9482768 102.2133144 7.1727525" fill="#2a2859"></path> <path d="m170.419623 166.589079s24.363368 37.273478 30.913833 49.392128c17.245469-14.69409 57.932794-43.905123 57.932794-43.905123s-2.977897-13.558534-1.198422-17.560233c1.788554-3.997155 12.760467-11.641716 15.325271-13.258747 2.569344-1.621574 1.416317 4.869262-1.606974 7.117663-1.03954.772177-6.314411 6.49992-5.855924 8.366773.453947 1.862312 17.372575-7.735405 17.372575-7.735405s6.405201-.090844 5.597174 3.465716c0 0 5.138687 2.707165 3.622502 5.450667 0 0 3.141317 3.574729.263289 7.544632s-8.729412 13.767477-20.818037 15.652499c0 0-57.306347 67.501969-74.633527 69.827587-17.032114 2.28928-60.334177-70.676983-60.334177-70.676983z" fill="#f6cbb3"></path> <path d="m155.279945 738.607915s22.918845 12.253806 26.501771 24.391318c3.582927 12.124591-38.128001-7.17569-38.128001-7.17569s-3.04366 8.640117-4.880823 9.126823c-1.837164.478092-5.228148-18.051212.068551-25.416416 5.301268-7.369512 16.438502-.926035 16.438502-.926035" fill="#de4a59"></path> <path d="m152.500635 715-.392096 22.168175s14.741919 11.968819 11.397833 17.626558c-3.335072 5.657739-25.891875-10.439822-25.891875-10.439822l-3.614497-24.169028z" fill="#f6cbb3"></path> <path d="m175.502934 341.633622s10.326338 147.444974 4.942019 193.710461c-4.914939 42.271083-19.736483 190.655917-19.736483 190.655917l-33.407145-1.491123-7.604842-185.464098c1.435217-10.767717 5.285027-30.455062 1.967781-40.802553-22.8506316-71.225985-85.4314849-126.248432-47.9849726-181.718215 45.3808226-67.24062 101.8236426 25.109611 101.8236426 25.109611" fill="#191a37"></path> <path d="m46.9661058 729.633971s14.4308255 21.753197 11.6869038 34.630478c-2.7439216 12.881781-30.4859791-23.913664-30.4859791-23.913664s-6.9469856 6.638933-8.8236812 6.25185c-1.8766956-.382583 4.1709445-19.115628 12.5036564-23.549085 8.3373004-4.437958 15.1191001 6.580421 15.1191001 6.580421" fill="#de4a59"></path> <path d="m55 706.976312-10.224818 19.625905s7.4474352 17.562423 2.029118 21.059386c-5.4227188 3.506093-17.8043-21.388082-17.8043-21.388082l7.6455053-23.273521z" fill="#f6cbb3"></path> <path d="m160 346.939866s-3.023466 115.777751-15.830325 160.58838c-11.696751 40.948658-81.4485559 212.471754-81.4485559 212.471754l-32.7211191-6.905422 46.7463899-192.072042c3.16787-10.401095-2.8745487-25.27466-4.4810469-36.028488-11.0063177-74.055794-54.5803249-130.696538-8.66426-179.396272 55.663357-59.032996 96.398917 41.34209 96.398917 41.34209" fill="#2a2859"></path> <path d="m183 347.481688c-12.603704 31.876202-148.1586641 23.533373-148.1586641 23.533373s24.3113881-126.989873 18.2129692-158.007851c-15.3191917-.302637-27.0543051-2.958611-27.0543051-2.958611s3.3189296-3.852968 10.1899368-40.955295c6.8755787-37.084259 35.3562007-46.154319 35.3562007-46.154319s54.0400375-11.965432 85.9310195 23.551441c6.45957 7.200037 21.143319 27.341171 21.143319 27.341171s-18.532976 9.661782-18.532976 9.824393c4.306379 5.072548 4.096089 13.957413 4.694959 18.216908.822875 5.722991-1.010307 12.448748-3.734938 19.445522-5.408119 13.763183-10.692805 22.119563-9.714498 32.87445 1.700608 18.582782 31.666977 93.288818 31.666977 93.288818" fill="#bddbdb"></path> <path d="m113.485843 110.315873c30.31634-22.799567 12.070395-83.315873 12.070395-83.315873l-33.3283693 4.4692591-15.9379112 1.0923848-3.4308615 24.9752712s-13.0149954-8.4353865-13.8259263 2.0034609c-.5658694 7.338469 6.2958536 16.9161003 6.2958536 16.9161003s3.9789082 20.5694701 18.237034 32.1369637c-.4500221 2.792154-2.6154749 10.633755-4.0011865 13.339787 0 0 16.6419061 20.447087 29.4207512 25.369617 12.783301 4.922531 6.973115-17.836241 6.973115-17.836241s-2.054062-10.946512-2.472894-19.15073" fill="#f6cbb3"></path> <path d="m152 55.1543145s-5.047656-6.0084994-3.930514-15.6392399c1.117141-9.6307405-1.408966-23.8670951-17.719233-26.3977019-5.877532-.9111988-10.295941 3.6132193-13.401138 9.0533472-13.474095-5.4446388-59.7419925-7.4158957-65.4599331-3.1756634-7.0311519 5.2055619-3.3195063 27.5118905-13.7613596 35.058602-10.4372936 7.5467114 2.941046 54.7937255 16.7571227 48.3431595 13.8206365-6.455077 7.1679448-13.0093936 7.8610285-21.0974113.6976435-8.0880176 22.1877984-13.3883081 36.5328075-22.7483954 10.195626-6.6625779 15.904447-19.6990369 15.968284-25.2970458 0 0 9.420467 16.5459279 37.152935 21.900349" fill="#2a2859"></path> <path d="m63.7213816 213.454146c-5.4666682 19.691927-17.2579617 56.287182-17.239994 57.986554 0 0 12.842403 55.130163 15.5645074 55.184398 2.7176124.058755 10.2730241 5.934244 11.2747225 6.982793.9972066 1.048548 7.7036451 2.164891 5.0713792 4.13544-2.6322659 1.975068-9.9585896-3.642803-9.648647.144627 1.0331419 12.456036 5.5295551 20.22976 5.421749 22.706504-.0988222 2.472225-2.9871277 1.49147-2.9871277 1.49147.4267326.881324 1.4149553 4.650676-.5794578 4.903774-1.6530271.207902-3.5216663-2.802157-3.5216663-2.802157s-1.2307865 1.844-2.4166537 1.658696c-2.3268153-.352529-2.5424275-3.665401-2.5424275-3.665401-.8085458.822569-3.4677633-.357049-4.4739536-1.215774-2.0303485-1.72649-7.8743381-19.352956-8.1708049-26.792229-.0628869-1.527627-25.5994597-60.056533-27.3018979-65.565934-1.1050127-3.593087 3.2207076-35.035991 10.6997566-57.606907 4.7749124.2305 17.5813801 1.622539 30.8505157 2.454146" fill="#f6cbb3"></path> <path d="m253 159-11.502659-44.742326-92.497341-19.257674 11.502659 44.746832z" fill="#2a2859"></path> <path d="m254 158.373978-28.580644 36.626022-92.419356-19.378512 28.580644-36.621488z" fill="#2a2859"></path> <path d="m475.256806 214c5.476695 0 10.369993-3.80394 11.50513-9.317417 1.293422-6.29664-2.812968-12.436647-9.176065-13.716561l-326.485183-65.732092c-6.349529-1.275439-12.567907 2.79254-13.86133 9.084705-1.297945 6.292165 2.812968 12.436648 9.176065 13.716562l326.485183 65.732091c.79143.156633 1.578338.232712 2.3562.232712" fill="#f3b239"></path> <path d="m276.68578 145.841124s-4.652485 12.402314-7.009922 15.569449c-2.357437 3.157954 2.085597 5.329048 3.658707 4.245796 0 0-.73085 2.102243.254015 3.6445.73085 1.138332 5.049104 2.290435 5.570503-.275403 0 0 .476835 5.645761 6.439502 1.354064 0 0 2.201463 3.107464 4.483141.716048 2.281678-2.386826 6.390481-7.605712 6.885142-14.215384.490204-6.600492-4.62129-6.591312-4.62129-6.591312s-1.764735-4.094325-4.639115-2.74485c0 0-2.553519-3.295656-5.352139-1.86815 0 0-3.596317-3.878592-5.668544.165242" fill="#f6cbb3"></path> </g> <g transform="matrix(-1 0 0 1 742 737)"> <path d="m204.47313 351.362868 167.52687 132.201882c-.025208 19.914273-16.196015 119.460443-36.122784 119.435245l-299.8342358-.361161c-19.9309711-.025198-36.06396621-99.604963-36.04295971-119.523436l167.84616851-131.794526c10.751129-8.445298 25.896819-8.4243 36.626941.041996" fill="#f1c65d"></path> <path d="m167.745757 614.501435c10.744697 8.462015 25.881326 8.445184 36.605029-.042078l167.426649-132.459357.222536 186.463086c.025192 19.9579-16.10235 36.153969-36.017199 36.179216l-299.6548631.357668c-19.9148488.025248-36.08018044-16.137159-36.10537317-36.095059l-.22253573-186.45467z" fill="#f1ae37"></path> <path d="m419.172041 290.281507c-.155458.497307-1.747853 5.913356 1.626008 6.147383 0 0-.029411.422084 2.983115-.200595 0 0 2.4075 3.919949 6.865367 2.436387.037814.012537 16.634018-2.591011 16.671832-2.582653 4.558705-1.533712 15.402959-4.195766 20.654922-14.894134 0 0 77.46856-24.948929 85.350707-34.218061 7.877945-9.260775 17.676008-57.039853 17.676008-57.039853l-29.339568-12.929981s-4.907435 43.32839-14.776924 50.980231c-9.861087 7.65184-63.708417 38.802478-63.708417 38.802478s-11.82322-6.6823-16.058403-6.180814c-1.806675.242384-13.848377 1.621471-13.621492 5.110978.155458 2.41967 4.751976 3.34324 7.768704 3.180257 2.268848-.112835 5.302382-.543277 5.651113-.313429.361335.192236.067225.605962-.684856 1.128343-2.72682 2.010123-11.60894 5.946789-16.886113 8.851228-6.65949 3.69428-11.68877 7.706168-12.155144 8.980779-.836113 2.294298 1.336099 2.921156 1.983141 2.741456" fill="#cba495"></path> <path d="m636.096653 691s-.518914 4.572219.847983 7.790191c1.008298 2.377554 32.265526 8.486909 61.902729 2.96541 2.565042-.478994 4.328508-2.943638 4.138661-5.634715l-.240473-3.470533z" fill="#e1a033"></path> <path d="m636.093494 690.956695c1.897131-5.511855 31.386239-9.572351 41.695099-10.171915 11.616795-.653319.864992-7.73231 10.325576-6.677904 9.477299 1.09989 9.477299 1.09989 9.477299 1.09989s3.806798 6.260276 4.345851 15.956675c.033429.620239.06268 1.240478.06268 1.92274.004179 6.64896-19.773623 5.995642-38.022019 5.8013-12.151669-.128182-21.904762-.607834-27.165749-5.77649-.747988-.731882-.956923-1.459629-.718737-2.154296" fill="#e1a033"></path> <path d="m700 650-.049521 31.299154s-29.481677 5.931559-22.833444.21409l-2.117035-28.847611z" fill="#cfa998"></path> <path d="m536.36873 693s-.919967 4.199634.146358 7.299653c.790335 2.296611 31.094879 10.736455 60.834898 8.245078 2.575907-.215054 4.537109-2.353418 4.587289-4.861025l.062725-3.242036z" fill="#e1a033"></path> <path d="m536.153405 691.431987c2.408586-5.356855 32.276735-6.728377 42.64121-6.38237 11.677867.416876 1.586142-7.678854 10.951935-5.752888 9.369988 1.975992 9.369988 1.975992 9.369988 1.975992s3.226834 6.640833 2.853378 16.424911c-.029373.621145-.05455 1.246459-.121689 1.934304-.616833 6.674184-20.326119 4.197941-38.554166 2.326168-12.143639-1.246459-21.849319-2.626318-26.624531-8.299999-.679775-.800402-.822444-1.550779-.516125-2.226118" fill="#e1a033"></path> <path d="m603 656-2.920382 31.04017s-30.174501 3.132033-22.967282-1.919364l.51242-28.811366z" fill="#cfa998"></path> <path d="m584.377018 304.173542s101.800859-37.581211 148.070526 5.544906c8.924129 61.631508-23.50386 174.492582-24.296741 224.350601-.641053 40.378831-.991102 78.886989-3.255873 132.930951l-32.647297-.834672s-10.784025-53.473533-16.157059-128.648538c-2.395513-33.588207-2.479862-80.862518 2.294294-134.675792l-8.82291.398461s-22.441063 81.818826-28.17258 125.897057c-5.453166 41.909761-10.41289 90.727586-13.053015 137.863484l-37.054534-1.447044s-6.579225-91.549676-6.271351-138.391971c.404875-62.671702 12.357134-183.090961 19.36654-222.987443" fill="#2a2859"></path> <path d="m204.888178 536.482532 249.285105-113.409674c8.445215-3.839433 12.159429-13.764243 8.30236-22.166664l-67.091142-146.128507c-3.857068-8.40242-13.831666-12.099653-22.272679-8.260219l-249.285105 113.405491c-8.445215 3.843616-12.159429 13.768426-8.30236 22.170847l67.091142 146.128507c3.857068 8.40242 13.831666 12.099653 22.272679 8.260219" fill="#dfefec"></path> <path d="m344.669868 302.730163c-.285193.439537-3.300688 5.220027-.125821 6.375382 0 0-.14679.397677 2.923227.611166 0 0 1.233039 4.437233 5.917751 4.223743.033552.020931 16.679586 2.038616 16.717332 2.059546 4.79795-.23442 15.94144.154885 23.918451-8.71958 0 0 81.233821-2.909318 91.345584-9.690749 10.111763-6.777244 32.633608-50.140727 32.633608-50.140727l-24.610463-20.448944s-16.616676 40.403932-28.192149 45.083957c-11.57128 4.68421-71.822458 20.00522-71.822458 20.00522s-9.520407-9.657259-13.727001-10.331216c-1.790844-.255351-15.224264.481397-15.966604 3.897229-.515864 2.381873 2.3109 3.19397 6.173585 3.05583.767505-.029302 7.146597.360002 7.415014.682329.289387.280467-.104851.598608-.968817.900005-3.170673 1.19303-12.779155 2.561874-18.646578 3.922346-7.406625 1.741405-13.336958 4.232115-14.133821 5.341423-1.434352 1.980011.478118 3.168854 1.14916 3.17304" fill="#cfa998"></path> <path d="m517.312379 270.672494c-9.407339-19.35322-39.312379-37.368118-39.312379-37.368118 15.917536-18.791041 14.452219-90.405926 67.136668-120.360834 7.489866-4.262491 31.09404-18.6945473 50.829776-8.189353 106.185289 56.51157 146.033556 222.413094 146.033556 222.413094-63.908782 27.655847-167.586286 12.900748-167.586286 12.900748-1.54905-20.637002-10.110691-70.637365-39.580323-120.423764-3.533508 22.957038-17.521012 51.028227-17.521012 51.028227" fill="#3ec588"></path> <path d="m481 53.9044363s3.110279 14.2243966 5.230157 20.3229749c2.119878 6.1027929-2.90377 10.3680046-2.499181 12.4078884.341372 1.7406447 5.904472 3.9280408 5.904472 3.9280408s1.841724 19.9858036 9.276048 22.5862346c7.43011 2.60043 22.926715-6.271379 22.926715-6.271379l10.944978 19.121804s25.737766-.564761 38.216811-25.085514l-10.354952-18.0850027s-4.01639-39.7608762-27.600562-51.4059155c-23.579958-11.6492539-52.044486 22.4808685-52.044486 22.4808685" fill="#cfa998"></path> <path d="m460.791358 50.1247308c-7.090819-7.2850386-6.530247-14.3659794 3.150081-17.5315765 19.113837-6.247889 20.900138-26.52437145 52.70215-28.83609038 5.973859-.43318697 12.039752.22075874 17.863009 1.84937514-1.522749-2.65327019-3.844521-5.60643906-3.844521-5.60643906 4.099707 1.69109529 6.8691 4.72340408 8.51735 7.0059662 3.09988-1.05381061 10.738722-3.29888539 13.524849-.94967913 0 0-5.300335.77473824-8.375115 3.35719902 20.360483 10.17156331 34.755474 33.03467181 26.112622 62.62050881-5.141367 17.5815597-27.555886 17.6606996-39.160567 10.5006188 0 0 11.090126-5.0607901 7.634658-12.9164692-2.694093-6.118766-9.621761-7.5099626-12.156886-2.4949903-3.857071 7.6307551-2.593692 8.0597768-5.1832 9.0844306 0 0-3.442918-11.8501628-10.044282-19.3809517 0 0-29.446772 11.1420687-43.256091.9330181 0 0 6.011509.1916019 7.471506-.416526 0 0-7.634658.304064-14.955563-7.2183944" fill="#2b2f6c"></path> <path d="m716.367524 343s-26.697947 4.51426-41.367524 0v25.959129l20.681629 12.040871 16.939563-7.151134s6.366204-22.946778 3.746332-30.848866" fill="#191a37"></path> <path d="m636.379407 349.062785s-26.27666 2.437063-40.708248-2.062785l-1.671159 29.623291 19.621418 12.376709 19.067163-9.186835s6.264746-22.873519 3.690826-30.75038" fill="#191a37"></path> <path d="m36.1269848 704.999971 299.8342282-.356259c19.926769-.025148 36.063965-16.157376 36.038758-36.036606l-167.266386-138.802543c-10.961193-9.090882-26.863117-9.069925-37.794901.046104l-166.938684 139.196523c.0252078 19.879231 16.2002156 35.977928 36.1269848 35.952781" fill="#f1ba43"></path> </g> </g> </svg> 