<?xml version="1.0" encoding="UTF-8"?> <svg xmlns="http://www.w3.org/2000/svg" xmlns:xlink="http://www.w3.org/1999/xlink" height="900" viewBox="0 0 1680 900" width="1680"> <defs> <linearGradient id="a" x1="50%" x2="50%" y1="0%" y2="86.67916%"> <stop offset="0" stop-color="#00389f"></stop> <stop offset="1" stop-color="#296dd9"></stop> </linearGradient> <path id="b" d="m1680 900h-1680v-198.365269c4.86142681-1.8795 10.1460332-2.910241 15.6716418-2.910241 3.2728975 0 6.4612427.361621 9.5271782 1.047048 1.9974896-31.049212 27.8408419-55.615075 59.4280457-55.615075 24.4692803 0 45.4917033 14.741851 54.6522173 35.819566 21.841648.897569 39.521406 17.907836 41.443202 39.447216 1.091755-.082121 2.194773-.123925 3.307566-.123925 16.528039 0 30.899807 9.222151 38.239827 22.796228 9.593286-23.849019 32.961935-40.687385 60.267635-40.687385 28.162641 0 52.137237 17.911834 61.129834 42.95317 7.609611.194102 14.732593 2.343312 20.884288 5.963494 7.781036-11.691017 21.087137-19.396256 36.194834-19.396256 8.345913 0 16.142022 2.351459 22.760594 6.42732 11.724736-16.859268 31.251417-27.896707 53.358809-27.896707 20.763098 0 39.249795 9.735934 51.134584 24.886953 5.201331-2.200551 10.920946-3.417566 16.925117-3.417566 12.669233 0 24.071511 5.418639 32.010975 14.062425 3.53522-4.305483 8.302767-7.562584 13.76431-9.233556 7.716855-12.04905 21.231042-20.036352 36.612775-20.036352 21.687856 0 39.662976 15.878988 42.909894 36.633359 6.722583 3.698742 11.799026 10.014986 13.852994 17.573882 6.372681-2.088059 13.180326-3.217445 20.252037-3.217445 17.607228 0 33.577465 7.001245 45.27296 18.368827 8.861948-25.283401 32.958193-43.416446 61.294204-43.416446 18.310273 0 34.850215 7.571517 46.653325 19.751242 6.082843-5.352813 13.17689-9.5859 20.959108-12.37657-.000328-.072701-.000492-.145436-.000492-.218209 0-26.184684 21.249768-47.411565 47.462686-47.411565 13.618619 0 25.897583 5.729564 34.552957 14.907215 8.307692-13.758081 23.413744-22.958235 40.670924-22.958235 15.30171 0 28.91218 7.233282 37.5917 18.463637 7.59189-6.491693 17.45216-10.412617 28.2292-10.412617 16.47301 0 30.80409 9.160851 38.16628 22.660806 4.47345-.783082 9.07599-1.191418 13.77401-1.191418 17.98467 0 34.57019 5.984019 47.87006 16.067587 3.53016-9.5952 12.05728-16.779078 22.43051-18.404196-.00137-.115525-.00206-.231214-.00206-.347064 0-15.809621 12.83005-28.625851 28.65672-28.625851 8.66724 0 16.43578 3.843642 21.6906 9.917642 3.69586-2.680062 8.05757-4.499707 12.79037-5.164498 2.40282-13.382849 14.1169-23.538858 28.20559-23.538858 3.67291 0 7.18443.690241 10.41165 1.947951 10.28013-22.271978 32.82855-37.730264 58.99134-37.730264 29.15665 0 53.8244 19.198557 62.02556 45.630871 5.88396-1.751479 12.11774-2.692095 18.57145-2.692095 28.88611 0 53.36623 18.843915 61.79302 44.896936 1.02875-.111717 2.07385-.169045 3.13236-.169045 9.51046 0 17.93885 4.627906 23.15143 11.752276 4.92612-3.992548 11.20467-6.384929 18.0426-6.384929.11597 0 .23179.000688.34744.00206 2.14875-13.686088 14.00511-24.155122 28.30927-24.155122 9.60845 0 18.11241 4.723755 23.31152 11.973264 7.58681-3.105018 15.89275-4.816801 24.59893-4.816801 24.14798 0 45.21684 13.169059 56.40198 32.709904 3.26999-1.873449 6.71876-3.470802 10.31444-4.760228z"></path> <filter id="c" height="115.2%" width="102.4%" x="-1.2%" y="-11.4%"> <feOffset dx="0" dy="-10" in="SourceAlpha" result="shadowOffsetOuter1"></feOffset> <feGaussianBlur in="shadowOffsetOuter1" result="shadowBlurOuter1" stdDeviation="5"></feGaussianBlur> <feColorMatrix in="shadowBlurOuter1" type="matrix" values="0 0 0 0 0 0 0 0 0 0 0 0 0 0 0 0 0 0 0.1 0"></feColorMatrix> </filter> <path id="d" d="m1680 979h-1680v-198.365269c4.86142681-1.8795 10.1460332-2.910241 15.6716418-2.910241 3.2728975 0 6.4612427.361621 9.5271782 1.047048 1.9974896-31.049212 27.8408419-55.615075 59.4280457-55.615075 24.4692803 0 45.4917033 14.741851 54.6522173 35.819566 21.841648.897569 39.521406 17.907836 41.443202 39.447216 1.091755-.082121 2.194773-.123925 3.307566-.123925 16.528039 0 30.899807 9.222151 38.239827 22.796228 9.593286-23.849019 32.961935-40.687385 60.267635-40.687385 28.162641 0 52.137237 17.911834 61.129834 42.95317 7.609611.194102 14.732593 2.343312 20.884288 5.963494 7.781036-11.691017 21.087137-19.396256 36.194834-19.396256 8.345913 0 16.142022 2.351459 22.760594 6.42732 11.724736-16.859268 31.251417-27.896707 53.358809-27.896707 20.763098 0 39.249795 9.735934 51.134584 24.886953 5.201331-2.200551 10.920946-3.417566 16.925117-3.417566 12.669233 0 24.071511 5.418639 32.010975 14.062425 3.53522-4.305483 8.302767-7.562584 13.76431-9.233556 7.716855-12.04905 21.231042-20.036352 36.612775-20.036352 21.687856 0 39.662976 15.878988 42.909894 36.633359 6.722583 3.698742 11.799026 10.014986 13.852994 17.573882 6.372681-2.088059 13.180326-3.217445 20.252037-3.217445 17.607228 0 33.577465 7.001245 45.27296 18.368827 8.861948-25.283401 32.958193-43.416446 61.294204-43.416446 18.310273 0 34.850215 7.571517 46.653325 19.751242 6.082843-5.352813 13.17689-9.5859 20.959108-12.37657-.000328-.072701-.000492-.145436-.000492-.218209 0-26.184684 21.249768-47.411565 47.462686-47.411565 13.618619 0 25.897583 5.729564 34.552957 14.907215 8.307692-13.758081 23.413744-22.958235 40.670924-22.958235 15.30171 0 28.91218 7.233282 37.5917 18.463637 7.59189-6.491693 17.45216-10.412617 28.2292-10.412617 16.47301 0 30.80409 9.160851 38.16628 22.660806 4.47345-.783082 9.07599-1.191418 13.77401-1.191418 17.98467 0 34.57019 5.984019 47.87006 16.067587 3.53016-9.5952 12.05728-16.779078 22.43051-18.404196-.00137-.115525-.00206-.231214-.00206-.347064 0-15.809621 12.83005-28.625851 28.65672-28.625851 8.66724 0 16.43578 3.843642 21.6906 9.917642 3.69586-2.680062 8.05757-4.499707 12.79037-5.164498 2.40282-13.382849 14.1169-23.538858 28.20559-23.538858 3.67291 0 7.18443.690241 10.41165 1.947951 10.28013-22.271978 32.82855-37.730264 58.99134-37.730264 29.15665 0 53.8244 19.198557 62.02556 45.630871 5.88396-1.751479 12.11774-2.692095 18.57145-2.692095 28.88611 0 53.36623 18.843915 61.79302 44.896936 1.02875-.111717 2.07385-.169045 3.13236-.169045 9.51046 0 17.93885 4.627906 23.15143 11.752276 4.92612-3.992548 11.20467-6.384929 18.0426-6.384929.11597 0 .23179.000688.34744.00206 2.14875-13.686088 14.00511-24.155122 28.30927-24.155122 9.60845 0 18.11241 4.723755 23.31152 11.973264 7.58681-3.105018 15.89275-4.816801 24.59893-4.816801 24.14798 0 45.21684 13.169059 56.40198 32.709904 3.26999-1.873449 6.71876-3.470802 10.31444-4.760228z"></path> <filter id="e" height="115.2%" width="102.4%" x="-1.2%" y="-11.4%"> <feOffset dx="0" dy="-10" in="SourceAlpha" result="shadowOffsetOuter1"></feOffset> <feGaussianBlur in="shadowOffsetOuter1" result="shadowBlurOuter1" stdDeviation="5"></feGaussianBlur> <feColorMatrix in="shadowBlurOuter1" type="matrix" values="0 0 0 0 0 0 0 0 0 0 0 0 0 0 0 0 0 0 0.1 0"></feColorMatrix> </filter> </defs> <g fill="none" fill-rule="evenodd"> <path d="m0 812h1680v192h-1680z" fill="#fff"></path> <path d="m0 0h1680v812h-1680z" fill="url(#a)"></path> <use fill="#000" filter="url(#c)" xlink:href="#b"></use> <use fill="#fff" fill-rule="evenodd" xlink:href="#b"></use> <g transform="matrix(-1 0 0 1 1680 0)"> <use fill="#000" filter="url(#e)" xlink:href="#d"></use> <use fill="#fff" fill-rule="evenodd" xlink:href="#d"></use> </g> </g> </svg> 